#!OML:ASF H:\Dans Jumps\Project 1\Capture day 1\Session 1\subject.ASF
:FULLY-SPECIFIED
:DEGREES
218
root 0.564727 17.0513 -14.543 7.09303 -2.12497 -1.65886
lowerback 3.63548 -0.176949 0.264218
upperback 5.37806 -0.281743 1.75217
thorax 3.50804 -0.170466 1.65879
lowerneck -13.7479 1.05486 -1.89463
upperneck 28.6837 1.98738 0.0423201
head 11.6064 0.687574 0.615867
rclavicle 3.97569e-015 -3.97569e-016
rhumerus -28.2094 -16.0777 -77.4358
rradius 26.1259
rwrist 29.6071
rhand -18.2416 -26.474
rfingers 7.12502
rthumb 8.03713 -56.3012
lclavicle 3.97569e-015 -3.97569e-016
lhumerus -24.6426 -1.21585 86.5131
lradius 20.0173
lwrist 7.50321
lhand -25.2705 -1.3646
lfingers 7.12502
lthumb 1.25028 28.6115
rfemur -25.1275 -1.21429 20.3539
rtibia 38.0492
rfoot -18.6913 -3.38122
rtoes 6.16781
lfemur -24.5754 8.64851 -19.412
ltibia 37.5818
lfoot -16.9773 7.21273
ltoes -0.340158
219
root 0.564124 17.0363 -14.5534 7.11335 -2.16592 -1.6588
lowerback 3.75094 -0.167579 0.259878
upperback 5.41206 -0.268358 1.74813
thorax 3.47827 -0.16395 1.65735
lowerneck -13.7844 1.06298 -1.87546
upperneck 28.5841 2.00155 0.0146664
head 11.5756 0.693641 0.603884
rclavicle -3.97569e-015 -5.1684e-015
rhumerus -28.3882 -16.1227 -77.3399
rradius 26.0901
rwrist 29.6371
rhand -18.2163 -26.4558
rfingers 7.12502
rthumb 8.06153 -56.282
lclavicle -3.97569e-015 -5.1684e-015
lhumerus -24.8302 -1.2713 86.5246
lradius 19.9954
lwrist 7.53866
lhand -25.3361 -1.49659
lfingers 7.12502
lthumb 1.18699 28.4798
rfemur -25.3797 -1.20587 20.362
rtibia 38.3981
rfoot -18.8108 -3.39725
rtoes 6.08052
lfemur -24.8271 8.71016 -19.4265
ltibia 37.9441
lfoot -17.0843 7.27091
ltoes -0.436773
220
root 0.563607 17.021 -14.5636 7.12987 -2.2094 -1.66069
lowerback 3.86842 -0.157511 0.258484
upperback 5.44276 -0.25395 1.74446
thorax 3.44393 -0.156798 1.65458
lowerneck -13.8052 1.07007 -1.8563
upperneck 28.4829 2.0144 -0.0151628
head 11.5411 0.698923 0.590788
rclavicle -3.77691e-015 3.37934e-015
rhumerus -28.577 -16.1784 -77.2346
rradius 26.0497
rwrist 29.6949
rhand -18.2016 -26.4137
rfingers 7.12502
rthumb 8.07581 -56.2394
lclavicle -3.77691e-015 3.37934e-015
lhumerus -25.0266 -1.32602 86.5395
lradius 19.9732
lwrist 7.58096
lhand -25.3829 -1.60343
lfingers 7.12502
lthumb 1.14177 28.3733
rfemur -25.6261 -1.2 20.3715
rtibia 38.7458
rfoot -18.9331 -3.40836
rtoes 6.00051
lfemur -25.0733 8.77853 -19.4394
ltibia 38.306
lfoot -17.1982 7.32426
ltoes -0.536112
221
root 0.563142 17.0056 -14.5738 7.13944 -2.24909 -1.66663
lowerback 3.99175 -0.148672 0.26129
upperback 5.47377 -0.24112 1.74342
thorax 3.4067 -0.15033 1.65217
lowerneck -13.8277 1.07655 -1.82987
upperneck 28.3878 2.02837 -0.0578701
head 11.5096 0.703796 0.571943
rclavicle 2.78299e-015 1.19271e-015
rhumerus -28.7725 -16.2295 -77.1235
rradius 26.0139
rwrist 29.7577
rhand -18.2008 -26.3387
rfingers 7.12502
rthumb 8.07658 -56.1643
lclavicle 2.78299e-015 1.19271e-015
lhumerus -25.2285 -1.36962 86.5565
lradius 19.9579
lwrist 7.62624
lhand -25.3747 -1.58627
lfingers 7.12502
lthumb 1.14972 28.3904
rfemur -25.8638 -1.19837 20.3852
rtibia 39.0931
rfoot -19.0579 -3.41729
rtoes 5.92636
lfemur -25.3119 8.8495 -19.4467
ltibia 38.668
lfoot -17.3202 7.36759
ltoes -0.62758
222
root 0.562762 16.9901 -14.584 7.14418 -2.28442 -1.67454
lowerback 4.12069 -0.141229 0.266216
upperback 5.50149 -0.230035 1.74474
thorax 3.36298 -0.144674 1.65101
lowerneck -13.8458 1.0808 -1.80023
upperneck 28.299 2.04102 -0.109988
head 11.4799 0.707185 0.548949
rclavicle 9.93923e-017 -7.55382e-015
rhumerus -28.981 -16.2776 -77.0042
rradius 25.984
rwrist 29.83
rhand -18.2105 -26.2431
rfingers 7.12502
rthumb 8.06714 -56.0691
lclavicle 9.93923e-017 -7.55382e-015
lhumerus -25.4443 -1.40424 86.5769
lradius 19.951
lwrist 7.66506
lhand -25.3171 -1.51792
lfingers 7.12502
lthumb 1.20526 28.4584
rfemur -26.0946 -1.20299 20.4014
rtibia 39.4401
rfoot -19.1845 -3.42409
rtoes 5.85555
lfemur -25.5447 8.9225 -19.4514
ltibia 39.0291
lfoot -17.45 7.40298
ltoes -0.723461
223
root 0.562425 16.9744 -14.5941 7.15267 -2.3149 -1.68387
lowerback 4.24593 -0.136468 0.271042
upperback 5.52862 -0.22259 1.74796
thorax 3.32087 -0.140883 1.65185
lowerneck -13.8643 1.08562 -1.77579
upperneck 28.21 2.0545 -0.157804
head 11.4502 0.710925 0.528578
rclavicle -2.68359e-015 -6.36111e-015
rhumerus -29.1841 -16.3156 -76.8886
rradius 25.9551
rwrist 29.8964
rhand -18.2279 -26.1682
rfingers 7.12502
rthumb 8.0504 -55.9948
lclavicle -2.68359e-015 -6.36111e-015
lhumerus -25.659 -1.43427 86.5997
lradius 19.9442
lwrist 7.70578
lhand -25.2329 -1.3912
lfingers 7.12502
lthumb 1.28666 28.5847
rfemur -26.3298 -1.21244 20.4197
rtibia 39.7882
rfoot -19.311 -3.43052
rtoes 5.78475
lfemur -25.7813 8.9926 -19.4547
ltibia 39.3897
lfoot -17.5828 7.43674
ltoes -0.814067
224
root 0.562168 16.9588 -14.6042 7.16719 -2.34479 -1.69617
lowerback 4.36171 -0.132816 0.277239
upperback 5.55872 -0.216793 1.75246
thorax 3.28725 -0.13793 1.65327
lowerneck -13.8806 1.09115 -1.76838
upperneck 28.1103 2.06738 -0.185857
head 11.4155 0.715201 0.518241
rclavicle -3.27995e-015 -1.09332e-014
rhumerus -29.3754 -16.3418 -76.7833
rradius 25.9327
rwrist 29.948
rhand -18.2479 -26.132
rfingers 7.12502
rthumb 8.03105 -55.9594
lclavicle -3.27995e-015 -1.09332e-014
lhumerus -25.8645 -1.47525 86.6278
lradius 19.9282
lwrist 7.75869
lhand -25.1494 -1.29563
lfingers 7.12502
lthumb 1.36727 28.6797
rfemur -26.5724 -1.22431 20.4418
rtibia 40.1371
rfoot -19.4352 -3.43721
rtoes 5.7
lfemur -26.0226 9.06088 -19.4556
ltibia 39.749
lfoot -17.7149 7.47227
ltoes -0.907742
225
root 0.561905 16.9429 -14.6142 7.18302 -2.37786 -1.70669
lowerback 4.4744 -0.128153 0.280334
upperback 5.58802 -0.20971 1.75615
thorax 3.25454 -0.134432 1.65553
lowerneck -13.899 1.09601 -1.75994
upperneck 28.016 2.07934 -0.214645
head 11.3834 0.719006 0.507402
rclavicle 1.59028e-015 1.03368e-014
rhumerus -29.5677 -16.3495 -76.6863
rradius 25.9246
rwrist 29.9757
rhand -18.2548 -26.1316
rfingers 7.12502
rthumb 8.02438 -55.9593
lclavicle 1.59028e-015 1.03368e-014
lhumerus -26.0704 -1.51954 86.6582
lradius 19.9093
lwrist 7.80478
lhand -25.0969 -1.26585
lfingers 7.12502
lthumb 1.418 28.7092
rfemur -26.8189 -1.23707 20.4626
rtibia 40.4872
rfoot -19.5556 -3.44366
rtoes 5.60748
lfemur -26.2639 9.12986 -19.4586
ltibia 40.1071
lfoot -17.8449 7.50894
ltoes -0.99924
226
root 0.561698 16.9271 -14.624 7.2033 -2.41741 -1.7202
lowerback 4.57827 -0.122243 0.285987
upperback 5.61946 -0.20105 1.75872
thorax 3.22896 -0.130061 1.65516
lowerneck -13.9136 1.10068 -1.76356
upperneck 27.9144 2.08916 -0.22715
head 11.3474 0.722714 0.504238
rclavicle 5.46658e-015 -2.38542e-015
rhumerus -29.7508 -16.3466 -76.6019
rradius 25.9272
rwrist 29.9849
rhand -18.2523 -26.1711
rfingers 7.12502
rthumb 8.02679 -55.9987
lclavicle 5.46658e-015 -2.38542e-015
lhumerus -26.269 -1.57899 86.6927
lradius 19.8837
lwrist 7.86858
lhand -25.069 -1.26377
lfingers 7.12502
lthumb 1.44492 28.7111
rfemur -27.0709 -1.24654 20.4867
rtibia 40.8368
rfoot -19.674 -3.44873
rtoes 5.5143
lfemur -26.5071 9.1999 -19.4594
ltibia 40.4631
lfoot -17.9718 7.55127
ltoes -1.09519
227
root 0.561519 16.9111 -14.6337 7.22415 -2.46142 -1.73188
lowerback 4.67704 -0.115097 0.290668
upperback 5.65253 -0.190807 1.75894
thorax 3.2079 -0.124904 1.65285
lowerneck -13.933 1.10572 -1.76626
upperneck 27.8176 2.09899 -0.238109
head 11.3143 0.726638 0.501559
rclavicle -3.27995e-015 -2.98177e-015
rhumerus -29.9229 -16.3568 -76.5195
rradius 25.9249
rwrist 29.9966
rhand -18.2453 -26.213
rfingers 7.12502
rthumb 8.03358 -56.0403
lclavicle -3.27995e-015 -2.98177e-015
lhumerus -26.4652 -1.6479 86.7292
lradius 19.8581
lwrist 7.94096
lhand -25.1268 -1.4179
lfingers 7.12502
lthumb 1.38906 28.5573
rfemur -27.3242 -1.25621 20.509
rtibia 41.1854
rfoot -19.7907 -3.45226
rtoes 5.41376
lfemur -26.7487 9.27086 -19.4626
ltibia 40.8163
lfoot -18.0963 7.59579
ltoes -1.19039
228
root 0.561325 16.8951 -14.6432 7.24336 -2.50892 -1.7438
lowerback 4.77396 -0.107698 0.295745
upperback 5.68659 -0.180235 1.75789
thorax 3.18892 -0.119554 1.649
lowerneck -13.9476 1.10993 -1.77046
upperneck 27.7184 2.10704 -0.246321
head 11.2793 0.729994 0.499845
rclavicle -8.34896e-015 -1.78906e-015
rhumerus -30.0888 -16.3707 -76.4398
rradius 25.922
rwrist 30.005
rhand -18.2355 -26.247
rfingers 7.12502
rthumb 8.04307 -56.074
lclavicle -8.34896e-015 -1.78906e-015
lhumerus -26.6606 -1.71267 86.7658
lradius 19.8323
lwrist 8.00746
lhand -25.2543 -1.72362
lfingers 7.12502
lthumb 1.26595 28.2524
rfemur -27.5739 -1.26427 20.5317
rtibia 41.5305
rfoot -19.9066 -3.45379
rtoes 5.32561
lfemur -26.9859 9.34334 -19.4655
ltibia 41.1651
lfoot -18.2185 7.64341
ltoes -1.29288
229
root 0.561103 16.8791 -14.6528 7.25895 -2.55508 -1.75484
lowerback 4.87146 -0.101791 0.298955
upperback 5.72263 -0.171716 1.75684
thorax 3.17178 -0.115311 1.64621
lowerneck -13.9606 1.11566 -1.77255
upperneck 27.619 2.11726 -0.256787
head 11.244 0.734285 0.497226
rclavicle -2.5842e-015 -8.15017e-015
rhumerus -30.2463 -16.3799 -76.364
rradius 25.9191
rwrist 30.0047
rhand -18.2361 -26.2621
rfingers 7.12502
rthumb 8.04247 -56.0891
lclavicle -2.5842e-015 -8.15017e-015
lhumerus -26.8515 -1.76602 86.8014
lradius 19.8167
lwrist 8.07845
lhand -25.3888 -1.99852
lfingers 7.12502
lthumb 1.13607 27.9782
rfemur -27.817 -1.27151 20.5532
rtibia 41.8709
rfoot -20.0223 -3.45478
rtoes 5.24623
lfemur -27.2164 9.41187 -19.468
ltibia 41.5089
lfoot -18.3396 7.69079
ltoes -1.38635
230
root 0.560872 16.8633 -14.6623 7.27355 -2.59976 -1.76476
lowerback 4.96384 -0.0977304 0.299983
upperback 5.76358 -0.165854 1.75538
thorax 3.16272 -0.11251 1.64428
lowerneck -13.9693 1.12336 -1.78536
upperneck 27.5092 2.12866 -0.253016
head 11.2036 0.73991 0.501681
rclavicle -5.06901e-015 -1.05356e-014
rhumerus -30.3855 -16.3913 -76.2958
rradius 25.914
rwrist 30.0003
rhand -18.2195 -26.3
rfingers 7.12502
rthumb 8.05849 -56.1264
lclavicle -5.06901e-015 -1.05356e-014
lhumerus -27.0249 -1.81208 86.8355
lradius 19.808
lwrist 8.14441
lhand -25.6009 -2.40276
lfingers 7.12502
lthumb 0.931246 27.5749
rfemur -28.0541 -1.27887 20.5732
rtibia 42.2049
rfoot -20.1374 -3.45465
rtoes 5.16742
lfemur -27.4421 9.47645 -19.471
ltibia 41.8464
lfoot -18.4599 7.74051
ltoes -1.47646
